<?xml version="1.0" standalone="no"?><!DOCTYPE svg PUBLIC "-//W3C//DTD SVG 1.1//EN" "http://www.w3.org/Graphics/SVG/1.1/DTD/svg11.dtd"><svg t="1570102613644" class="icon" viewBox="0 0 1024 1024" version="1.1" xmlns="http://www.w3.org/2000/svg" p-id="7061" xmlns:xlink="http://www.w3.org/1999/xlink" width="200" height="200"><defs><style type="text/css"></style></defs><path d="M512 512m-501.76 0a501.76 501.76 0 1 0 1003.52 0 501.76 501.76 0 1 0-1003.52 0Z" fill="#508DEF" p-id="7062"></path><path d="M512 1024c-136.8064 0-265.4208-53.248-362.0864-149.9136C53.248 777.4208 0 648.8064 0 512S53.248 246.5792 149.9136 149.9136C246.5792 53.248 375.1936 0 512 0s265.4208 53.248 362.0864 149.9136C970.752 246.5792 1024 375.1936 1024 512s-53.248 265.4208-149.9136 362.0864C777.4208 970.752 648.8064 1024 512 1024z m0-1003.52C241.0496 20.48 20.48 241.0496 20.48 512s220.5696 491.52 491.52 491.52 491.52-220.5696 491.52-491.52S782.9504 20.48 512 20.48z" fill="#1C1D21" p-id="7063" data-spm-anchor-id="a313x.7781069.0.i3" class="selected"></path><path d="M660.8896 814.2848L598.016 775.5776c-24.7808-15.36-39.936-42.3936-39.936-71.68v-25.3952c0-14.1312 8.3968-26.624 21.0944-32.768 54.4768-25.6 92.16-80.896 92.16-145.2032v-73.728c0-88.4736-71.8848-160.3584-160.3584-160.3584-88.4736 0-160.3584 71.8848-160.3584 160.3584v73.728c0 64.1024 37.6832 119.6032 92.16 145.2032 12.6976 5.9392 21.0944 18.6368 21.0944 32.768v25.3952c0 29.2864-15.1552 56.32-39.936 71.68l-62.8736 38.7072c-49.7664 30.72-80.2816 84.3776-81.92 142.5408C348.9792 993.0752 428.032 1013.76 512 1013.76c83.1488 0 161.792-20.2752 230.8096-56.1152-1.2288-58.5728-31.9488-112.64-81.92-143.36z" fill="#FFC5B3" p-id="7064"></path><path d="M660.8896 814.2848L598.016 775.5776c-7.3728-4.5056-13.9264-10.24-19.456-16.5888l-47.7184 42.3936c-11.264 10.0352-28.0576 10.0352-39.3216 0l-47.7184-42.3936c-5.5296 6.3488-12.0832 12.0832-19.456 16.5888l-62.8736 38.7072c-49.7664 30.72-80.2816 84.3776-81.92 142.5408C348.9792 993.0752 428.032 1013.76 512 1013.76c83.1488 0 161.792-20.2752 230.8096-56.1152-1.2288-58.5728-31.9488-112.64-81.92-143.36z" fill="#FFECE9" p-id="7065"></path><path d="M481.28 1012.736c10.24 0.6144 20.2752 1.024 30.72 1.024 9.8304 0 19.456-0.4096 29.0816-0.8192L511.1808 851.968 481.28 1012.736z" fill="#FF3E63" p-id="7066"></path><path d="M512 1024c-10.0352 0-20.2752-0.4096-31.3344-1.024-2.8672-0.2048-5.7344-1.6384-7.3728-3.8912-1.8432-2.2528-2.4576-5.3248-2.048-8.192l29.9008-160.768c0.8192-4.9152 5.12-8.3968 10.0352-8.3968s9.216 3.4816 10.0352 8.3968l29.9008 160.9728c0.6144 2.8672-0.2048 5.9392-2.048 8.192s-4.5056 3.6864-7.3728 3.8912c-10.24 0.6144-20.2752 0.8192-29.696 0.8192z m-18.432-20.8896c11.8784 0.4096 23.1424 0.4096 35.2256 0l-17.6128-95.0272-17.6128 95.0272z" fill="#1C1D21" p-id="7067"></path><path d="M327.2704 491.1104h22.528v-84.7872h-22.528c-20.0704 0-36.2496 16.1792-36.2496 36.2496v12.288c0 20.0704 16.1792 36.2496 36.2496 36.2496zM695.296 491.1104h-22.528v-84.7872h22.528c20.0704 0 36.2496 16.1792 36.2496 36.2496v12.288c0 20.0704-16.384 36.2496-36.2496 36.2496z" fill="#FFC5B3" p-id="7068"></path><path d="M349.7984 501.3504h-22.528c-25.6 0-46.4896-20.8896-46.4896-46.4896v-12.288c0-25.6 20.8896-46.4896 46.4896-46.4896h22.528c5.7344 0 10.24 4.5056 10.24 10.24v84.7872c0 5.5296-4.5056 10.24-10.24 10.24z m-22.528-84.7872c-14.336 0-26.0096 11.6736-26.0096 26.0096v12.288c0 14.336 11.6736 26.0096 26.0096 26.0096h12.288v-64.3072h-12.288zM695.296 501.3504h-22.528c-5.7344 0-10.24-4.5056-10.24-10.24v-84.7872c0-5.7344 4.5056-10.24 10.24-10.24h22.528c25.6 0 46.4896 20.8896 46.4896 46.4896v12.288c0 25.6-20.8896 46.4896-46.4896 46.4896z m-12.4928-20.48h12.288c14.336 0 26.0096-11.6736 26.0096-26.0096v-12.288c0-14.336-11.6736-26.0096-26.0096-26.0096h-12.288v64.3072z" fill="#1C1D21" p-id="7069"></path><path d="M511.1808 266.24c-4.7104 0-9.216 0.2048-13.9264 0.6144-75.3664 6.3488-135.7824 64.9216-145.2032 139.4688 139.264-0.4096 159.744-71.68 159.744-71.68s20.2752 70.656 158.5152 71.4752c-10.0352-78.848-77.4144-139.8784-159.1296-139.8784z" fill="#FF8939" p-id="7070"></path><path d="M352.0512 416.5632c-2.8672 0-5.7344-1.2288-7.5776-3.4816-2.048-2.2528-2.8672-5.12-2.4576-7.9872 10.0352-79.2576 74.9568-141.5168 154.4192-148.2752 4.9152-0.4096 9.8304-0.6144 14.7456-0.6144 85.6064 0 158.5152 64.1024 169.1648 148.8896 0.4096 2.8672-0.6144 5.9392-2.4576 7.9872-2.048 2.2528-4.7104 3.4816-7.7824 3.4816-100.1472-0.6144-141.9264-37.0688-158.3104-60.2112-16.5888 23.3472-58.5728 59.8016-159.744 60.2112z m159.1296-140.0832c-4.3008 0-8.6016 0.2048-12.9024 0.6144-65.9456 5.7344-120.6272 54.8864-133.9392 118.784 60.2112-2.048 94.0032-18.6368 112.2304-32.3584 20.48-15.5648 25.3952-31.5392 25.6-31.5392 1.2288-4.3008 5.3248-7.3728 9.8304-7.3728s8.6016 3.072 9.8304 7.3728c0 0 5.12 15.7696 25.3952 31.3344 18.0224 13.9264 51.6096 30.3104 111.2064 32.5632-14.7456-69.0176-75.776-119.3984-147.2512-119.3984z" fill="#1C1D21" p-id="7071"></path><path d="M743.6288 967.4752c-5.3248 0-9.8304-4.096-10.24-9.4208-2.4576-32.9728-10.8544-60.8256-25.3952-85.4016-3.2768-3.4816-5.5296-6.9632-7.7824-10.6496-0.8192-1.2288-1.6384-2.4576-2.6624-4.096-18.2272-22.9376-42.1888-36.0448-67.3792-49.9712-14.9504-8.192-30.3104-16.7936-45.056-27.648-0.2048 0-0.2048-0.2048-0.4096-0.2048-10.24-8.192-19.456-19.0464-27.0336-31.3344-0.4096-0.6144-0.6144-1.2288-1.024-2.048-0.8192-2.4576-1.6384-4.9152-2.4576-7.168-3.2768-9.6256-6.3488-18.6368-8.192-29.0816v-0.6144c-1.8432-17.6128-2.048-43.6224 16.7936-65.1264 0.2048-0.2048 0.2048-0.4096 0.4096-0.4096 8.3968-8.3968 18.8416-14.1312 28.8768-19.456 6.144-3.2768 12.0832-6.5536 17.408-10.24 23.1424-17.408 34.6112-43.6224 43.6224-66.9696 11.8784-34.2016 10.0352-69.632 8.192-107.1104-0.6144-11.0592-1.2288-22.528-1.4336-33.9968 0-5.7344 4.5056-10.24 10.0352-10.4448 5.7344 0 10.24 4.5056 10.4448 10.0352 0.2048 11.0592 0.8192 22.3232 1.4336 33.1776 2.048 37.6832 3.8912 76.8-9.216 114.8928 0 0.2048 0 0.2048-0.2048 0.4096-10.0352 26.0096-22.9376 55.5008-50.5856 76.1856 0 0-0.2048 0-0.2048 0.2048-6.3488 4.5056-13.1072 8.192-19.6608 11.6736-9.0112 4.9152-17.6128 9.4208-23.9616 15.7696-10.0352 11.6736-13.7216 27.2384-11.6736 48.9472 1.4336 8.8064 4.096 16.5888 7.3728 25.6 0.6144 2.048 1.4336 4.096 2.2528 6.3488 6.144 9.8304 13.5168 18.432 21.504 24.9856 13.5168 10.0352 28.4672 18.2272 42.5984 26.0096 26.0096 14.336 53.0432 29.2864 73.728 55.7056 0.2048 0.2048 0.4096 0.4096 0.4096 0.6144 1.2288 1.6384 2.048 3.2768 3.072 4.7104 2.2528 3.4816 3.6864 5.9392 5.9392 7.9872 0.6144 0.6144 1.024 1.2288 1.4336 1.8432 16.7936 27.648 26.2144 58.7776 29.0816 95.4368 0.4096 5.7344-3.8912 10.6496-9.4208 11.0592 0-0.2048-0.4096-0.2048-0.6144-0.2048zM279.552 967.0656c-5.7344 0-10.24-4.7104-10.24-10.4448 0.2048-17.2032 1.6384-30.5152 4.7104-43.6224 0-0.2048 0.2048-0.4096 0.2048-0.8192 14.1312-45.056 37.6832-77.6192 71.8848-99.7376 8.8064-5.7344 17.408-10.8544 25.8048-15.9744 24.7808-15.1552 48.128-29.4912 68.8128-50.176 11.264-11.264 13.5168-30.5152 15.36-47.3088l0.2048-1.2288v-5.12c0.2048-15.36-0.2048-25.1904-7.5776-30.72-24.1664-13.312-43.008-26.2144-60.6208-41.984l-0.4096-0.4096c-26.0096-26.0096-41.5744-58.368-45.8752-96.256-2.8672-27.8528-1.8432-55.7056-0.6144-82.5344 0.4096-11.4688 1.024-23.3472 1.024-34.816 0-5.5296 4.7104-10.0352 10.24-10.0352h0.2048c5.7344 0 10.24 4.7104 10.0352 10.4448-0.2048 11.6736-0.6144 23.7568-1.024 35.4304-1.024 26.0096-2.2528 53.0432 0.6144 79.4624 3.8912 32.768 17.2032 61.0304 39.936 83.7632 16.7936 14.9504 33.9968 26.624 57.344 39.5264 0.4096 0.2048 0.6144 0.4096 1.024 0.6144 17.2032 12.288 16.7936 32.1536 16.5888 48.128v6.5536l-0.2048 1.8432c-2.048 19.2512-4.7104 43.2128-21.0944 59.5968-22.3232 22.3232-46.6944 37.2736-72.704 53.0432-8.192 5.12-16.7936 10.24-25.3952 15.7696-29.9008 19.2512-50.5856 48.128-63.2832 88.2688-2.6624 11.4688-3.8912 23.3472-4.096 38.7072-0.6144 5.5296-5.12 10.0352-10.8544 10.0352z" fill="#1C1D21" p-id="7072"></path><path d="M512 1024c-82.5344 0-164.4544-20.0704-237.1584-58.1632-3.4816-1.8432-5.5296-5.5296-5.5296-9.4208 1.6384-62.0544 33.9968-118.3744 86.6304-150.9376l62.8736-38.7072c6.3488-3.8912 12.0832-8.8064 17.2032-14.7456 1.6384-1.8432 3.8912-3.072 6.3488-3.4816 3.072-0.4096 5.9392 0.4096 8.192 2.4576l47.7184 42.3936c7.3728 6.5536 18.432 6.5536 25.8048 0l47.7184-42.3936c1.8432-1.6384 4.3008-2.6624 6.7584-2.6624 3.072 0 5.9392 1.2288 7.7824 3.4816 4.9152 5.7344 10.6496 10.6496 17.2032 14.7456l62.8736 38.7072c53.0432 32.768 85.4016 89.4976 86.6304 151.9616 0 3.8912-2.048 7.5776-5.5296 9.216-72.2944 37.6832-153.6 57.5488-235.52 57.5488z m-222.0032-73.3184C358.4 985.2928 434.9952 1003.52 512 1003.52c77.6192 0 151.552-17.408 220.3648-52.0192-3.072-52.8384-31.5392-100.5568-76.8-128.6144l-62.8736-38.7072c-5.3248-3.2768-10.24-6.9632-14.7456-11.264l-40.5504 35.84c-15.1552 13.312-37.888 13.312-52.8384 0l-40.5504-35.84c-4.5056 4.3008-9.4208 7.9872-14.7456 11.264l-62.8736 38.7072c-44.6464 27.8528-72.9088 75.1616-76.3904 127.7952z" fill="#1C1D21" p-id="7073"></path><path d="M528.384 860.3648l44.6464-84.7872h-13.1072l-29.0816 25.6c-11.264 10.0352-28.0576 10.0352-39.3216 0l-29.0816-25.6h-13.1072l44.6464 84.7872c8.3968 16.1792 26.0096 16.1792 34.4064 0z" fill="#FF3E63" p-id="7074"></path><path d="M511.1808 882.688c-10.6496 0-20.48-6.5536-26.4192-17.6128L440.32 780.0832c-1.6384-3.072-1.6384-6.9632 0.2048-10.0352 1.8432-3.072 5.12-4.9152 8.8064-4.9152h13.1072c2.4576 0 4.9152 0.8192 6.7584 2.6624l29.0816 25.6c7.3728 6.5536 18.432 6.5536 25.8048 0l29.0816-25.6c1.8432-1.6384 4.3008-2.6624 6.7584-2.6624h13.1072c3.6864 0 6.9632 1.8432 8.8064 4.9152 1.8432 3.072 2.048 6.9632 0.2048 10.0352l-44.6464 84.7872c-5.7344 11.264-15.5648 17.8176-26.2144 17.8176z m-38.2976-84.3776l30.1056 57.1392c2.2528 4.096 5.3248 6.7584 8.192 6.7584s5.9392-2.4576 8.192-6.7584l30.1056-57.1392-11.8784 10.4448c-15.1552 13.312-37.888 13.312-52.8384 0l-11.8784-10.4448z m55.5008 62.0544z" fill="#1C1D21" p-id="7075"></path><path d="M443.8016 758.784c-0.2048 0-0.2048 0 0 0-1.2288 1.4336-2.6624 2.8672-3.8912 4.096l-1.024 1.024c-1.2288 1.2288-2.6624 2.6624-4.096 3.6864-0.2048 0.2048-0.4096 0.2048-0.4096 0.4096-1.2288 1.024-2.6624 2.048-3.8912 3.072-0.4096 0.4096-1.024 0.6144-1.4336 1.024-1.4336 1.024-2.8672 2.048-4.5056 3.072V866.304l66.9696-65.1264-47.7184-42.3936zM578.56 758.784s0.2048 0 0 0c1.2288 1.4336 2.6624 2.8672 3.8912 4.096l1.024 1.024c1.2288 1.2288 2.6624 2.6624 4.096 3.6864 0.2048 0.2048 0.4096 0.2048 0.4096 0.4096 1.2288 1.024 2.6624 2.048 3.8912 3.072 0.4096 0.4096 1.024 0.6144 1.4336 1.024 1.4336 1.024 2.8672 2.048 4.5056 3.072V866.304l-66.9696-65.1264 47.7184-42.3936z" fill="#FFECE9" p-id="7076"></path><path d="M424.5504 876.544c-1.4336 0-2.6624-0.2048-3.8912-0.8192-3.8912-1.6384-6.3488-5.3248-6.3488-9.4208v-91.136c0-3.4816 1.8432-6.7584 4.9152-8.6016 1.2288-0.8192 2.4576-1.6384 3.8912-2.6624 0.4096-0.2048 0.8192-0.6144 1.2288-1.024 1.2288-1.024 2.4576-1.8432 3.4816-2.6624l0.4096-0.4096c1.024-0.8192 2.2528-2.048 3.4816-3.2768l0.8192-0.8192c1.2288-1.4336 2.4576-2.4576 3.2768-3.4816 0-0.2048 0.2048-0.2048 0.4096-0.4096 1.6384-1.6384 3.6864-2.8672 6.144-3.072 3.072-0.4096 5.9392 0.4096 8.192 2.4576l47.7184 42.3936c2.048 1.8432 3.2768 4.5056 3.4816 7.3728 0 2.8672-1.024 5.5296-3.072 7.5776l-66.9696 65.1264c-2.048 1.8432-4.7104 2.8672-7.168 2.8672z m10.24-95.8464v61.44l41.7792-40.5504-32.1536-28.4672c-1.024 1.024-1.8432 1.8432-2.8672 2.6624l-0.6144 0.4096c-1.4336 1.2288-2.8672 2.2528-4.5056 3.4816-0.4096 0-1.024 0.4096-1.6384 1.024 0-0.2048 0 0 0 0z m8.8064-21.9136zM597.8112 876.544c-2.6624 0-5.12-1.024-7.168-2.8672l-66.9696-65.1264c-2.048-2.048-3.072-4.7104-3.072-7.5776 0-2.8672 1.2288-5.5296 3.4816-7.3728l47.7184-42.3936c2.2528-2.048 5.3248-2.8672 8.192-2.4576 2.2528 0.4096 4.5056 1.4336 6.144 3.2768 0.2048 0.2048 0.2048 0.4096 0.4096 0.4096 0.8192 1.024 1.8432 2.048 3.2768 3.4816l0.8192 0.8192c1.4336 1.2288 2.4576 2.4576 3.6864 3.2768l0.4096 0.4096c1.024 0.8192 2.2528 1.8432 3.4816 2.6624 0.4096 0.4096 0.8192 0.6144 1.2288 1.024 1.4336 1.024 2.6624 1.8432 3.8912 2.6624 3.072 1.8432 4.9152 5.12 4.9152 8.6016V866.304c0 4.096-2.4576 7.7824-6.3488 9.4208-1.4336 0.6144-2.6624 0.8192-4.096 0.8192z m-52.0192-75.1616l41.7792 40.5504v-61.44h-0.2048c-0.6144-0.4096-1.024-0.8192-1.6384-1.2288-1.6384-1.2288-3.072-2.2528-4.3008-3.4816l-0.4096-0.4096c-1.024-0.8192-1.8432-1.6384-2.8672-2.6624l-32.3584 28.672z" fill="#1C1D21" p-id="7077"></path><path d="M361.472 814.2848c-49.7664 30.72-80.2816 84.3776-81.92 142.5408 2.6624 1.4336 5.5296 2.8672 8.3968 4.3008 0.2048 0 0.2048 0.2048 0.4096 0.2048 11.0592 5.5296 22.1184 10.6496 33.5872 15.36 0.4096 0.2048 1.024 0.4096 1.4336 0.6144l7.9872 3.072c0.4096 0.2048 0.8192 0.2048 1.024 0.4096 7.9872 3.072 16.1792 5.9392 24.3712 8.6016 1.024 0.2048 1.8432 0.6144 2.8672 0.8192 2.2528 0.8192 4.7104 1.4336 6.9632 2.048 1.2288 0.4096 2.2528 0.6144 3.4816 1.024 2.2528 0.6144 4.5056 1.4336 6.7584 2.048 1.024 0.2048 2.048 0.6144 2.8672 0.8192 4.3008 1.2288 8.6016 2.2528 12.6976 3.2768 1.4336 0.4096 2.6624 0.6144 4.096 1.024 2.048 0.4096 4.096 1.024 6.144 1.4336 1.6384 0.4096 3.072 0.6144 4.7104 1.024l6.144 1.2288c1.6384 0.4096 3.2768 0.6144 4.9152 1.024l6.144 1.2288V775.168l-0.2048 0.2048-62.8736 38.912z" fill="#AAADAD" p-id="7078"></path><path d="M424.5504 1016.4224c-0.6144 0-1.2288 0-1.8432-0.2048-51.6096-9.0112-101.376-26.0096-147.8656-50.3808-3.4816-1.8432-5.5296-5.5296-5.5296-9.4208 1.6384-62.0544 33.9968-118.3744 86.6304-150.9376l62.6688-38.7072c0.2048 0 0.2048-0.2048 0.4096-0.2048 3.072-2.048 7.168-2.048 10.4448-0.2048 3.2768 1.8432 5.3248 5.3248 5.3248 9.0112v231.0144c0 3.072-1.4336 5.9392-3.6864 7.7824-1.8432 1.4336-4.3008 2.2528-6.5536 2.2528z m-134.5536-65.7408c39.3216 19.8656 81.1008 34.4064 124.1088 43.2128v-200.2944L366.592 822.8864c-44.8512 27.8528-73.1136 75.1616-76.5952 127.7952z m71.4752-136.3968z" fill="#1C1D21" p-id="7079"></path><path d="M597.8112 775.168v231.2192c51.4048-8.8064 100.1472-25.6 144.9984-48.7424-1.2288-58.5728-31.9488-112.64-81.92-143.36L598.016 775.5776c0-0.2048 0-0.4096-0.2048-0.4096z" fill="#AAADAD" p-id="7080"></path><path d="M597.8112 1016.6272c-2.4576 0-4.7104-0.8192-6.5536-2.4576-2.2528-2.048-3.6864-4.7104-3.6864-7.7824V775.168c0-3.6864 2.048-7.168 5.3248-9.0112 3.2768-1.8432 7.168-1.6384 10.4448 0.2048 0.2048 0 0.4096 0.2048 0.4096 0.2048l62.6688 38.7072c53.0432 32.768 85.4016 89.4976 86.6304 151.9616 0 3.8912-2.048 7.5776-5.5296 9.216-46.4896 24.1664-96.256 40.96-147.8656 49.7664-0.6144 0.4096-1.2288 0.4096-1.8432 0.4096z m10.24-223.0272v200.4992c43.2128-8.6016 84.7872-22.9376 124.1088-42.5984-3.072-52.8384-31.5392-100.5568-76.8-128.6144l-47.3088-29.2864z" fill="#1C1D21" p-id="7081"></path><path d="M374.9888 984.6784c-1.4336 3.072-2.6624 5.9392-3.8912 9.0112 17.408 5.12 35.0208 9.216 53.0432 12.4928l-0.2048-230.8096-57.344 142.1312c-4.9152 12.288 4.096 25.8048 17.408 25.8048 4.7104 0 7.9872 4.9152 5.9392 9.216l-14.9504 32.1536zM638.1568 943.5136c13.312 0 22.528-13.5168 17.408-25.8048L598.016 775.3728v231.0144c18.0224-3.072 35.84-7.168 53.248-12.288-1.2288-3.2768-2.6624-6.3488-4.096-9.4208l-14.9504-31.9488c-1.8432-4.3008 1.2288-9.216 5.9392-9.216z" fill="#AAADAD" p-id="7082"></path><path d="M598.016 1016.6272c-2.4576 0-4.7104-0.8192-6.5536-2.4576-2.2528-2.048-3.6864-4.9152-3.6864-7.7824l0.2048-231.0144c0-4.9152 3.4816-9.0112 8.192-10.0352s9.6256 1.6384 11.4688 6.144l57.5488 142.1312c3.6864 9.0112 2.6624 19.0464-2.8672 27.0336-4.3008 6.3488-11.0592 10.8544-18.432 12.288l12.6976 27.2384c1.4336 3.072 2.8672 6.3488 4.3008 10.0352 1.024 2.6624 0.8192 5.7344-0.4096 8.192-1.2288 2.6624-3.4816 4.5056-6.3488 5.3248-17.8176 5.12-36.0448 9.4208-54.4768 12.4928-0.6144 0.4096-1.024 0.4096-1.6384 0.4096z m10.24-188.6208v166.0928c9.8304-1.8432 19.456-4.096 29.0816-6.7584l-14.1312-30.3104c-2.4576-5.12-2.048-11.264 1.024-15.9744 3.072-4.9152 8.3968-7.7824 14.1312-7.7824 2.8672 0 5.5296-1.4336 7.168-3.6864s1.8432-5.3248 0.8192-7.9872L608.256 828.0064z" fill="#1C1D21" p-id="7083"></path><path d="M460.3904 618.7008c-1.4336 0-2.8672-0.4096-4.3008-1.024-45.2608-21.2992-74.5472-67.3792-74.5472-117.3504v-73.728c0-8.3968 0.8192-16.5888 2.4576-24.7808 1.024-5.5296 6.3488-9.216 12.0832-8.192 5.5296 1.024 9.216 6.5536 8.192 12.0832-1.2288 6.7584-2.048 13.9264-2.048 20.8896v73.728c0 42.1888 24.576 80.896 62.8736 98.9184 5.12 2.4576 7.3728 8.6016 4.9152 13.7216-2.048 3.4816-5.7344 5.7344-9.6256 5.7344z" fill="#FFECE9" p-id="7084"></path><path d="M424.3456 1016.4224c-0.6144 0-1.2288 0-1.8432-0.2048-18.0224-3.2768-36.4544-7.3728-54.272-12.6976-2.6624-0.8192-5.12-2.6624-6.3488-5.3248-1.2288-2.6624-1.4336-5.5296-0.4096-8.192 1.4336-3.4816 2.6624-6.7584 4.096-9.6256l12.6976-27.2384c-7.3728-1.4336-14.1312-5.7344-18.432-12.288-5.3248-7.9872-6.5536-18.2272-2.8672-27.0336l57.5488-142.1312c1.8432-4.5056 6.5536-7.168 11.4688-6.144 4.7104 1.024 8.192 5.12 8.192 10.0352l0.2048 230.8096c0 3.072-1.4336 5.9392-3.6864 7.7824-1.6384 1.4336-3.8912 2.2528-6.3488 2.2528z m-39.1168-29.4912c9.6256 2.4576 19.2512 4.7104 28.8768 6.7584v-165.888l-37.888 93.5936c-1.024 2.6624-0.8192 5.5296 0.8192 7.9872 1.6384 2.4576 4.3008 3.6864 7.168 3.6864 5.7344 0 11.0592 2.8672 14.1312 7.7824s3.4816 10.8544 1.024 15.9744l-14.1312 30.1056zM512 598.6304c-17.8176 0-34.2016-9.6256-43.2128-24.9856-2.8672-4.9152-1.2288-11.0592 3.6864-13.9264 4.9152-2.8672 11.0592-1.2288 13.9264 3.6864 5.3248 9.0112 14.9504 14.7456 25.3952 14.7456s20.2752-5.5296 25.3952-14.7456c2.8672-4.9152 9.0112-6.5536 13.9264-3.6864 4.9152 2.8672 6.5536 9.0112 3.6864 13.9264-8.6016 15.5648-24.9856 24.9856-42.8032 24.9856z" fill="#1C1D21" p-id="7085"></path><path d="M743.0144 518.144H281.1904c-22.528 0-40.96-18.432-40.96-40.96v-180.224c0-22.528 18.432-40.96 40.96-40.96h461.824c22.528 0 40.96 18.432 40.96 40.96v180.224c0 22.7328-18.432 40.96-40.96 40.96z" fill="#0ABFB2" p-id="7086"></path><path d="M514.048 312.5248c4.3008 0 7.7824 3.4816 7.7824 7.7824v17.408h8.6016c5.5296 0 10.24 4.5056 10.24 10.24 0 5.5296-4.5056 10.24-10.24 10.24h-25.3952c-0.8192 0-1.2288 0.6144-1.2288 1.2288v16.1792c0 0.8192 0.6144 1.2288 1.2288 1.2288h13.7216c11.8784 0 21.7088 9.8304 21.7088 21.7088v16.1792c0 11.0592-8.192 20.0704-18.8416 21.504v17.6128c0 4.3008-3.4816 7.7824-7.7824 7.7824-4.3008 0-7.7824-3.4816-7.7824-7.7824v-17.408H493.568c-5.5296 0-10.24-4.5056-10.24-10.24 0-5.5296 4.5056-10.24 10.24-10.24h25.3952c0.8192 0 1.2288-0.6144 1.2288-1.2288v-16.1792c0-0.8192-0.6144-1.2288-1.2288-1.2288h-13.7216c-11.8784 0-21.7088-9.8304-21.7088-21.7088v-16.1792c0-11.8784 9.8304-21.7088 21.7088-21.7088h1.2288v-17.408c-0.2048-4.3008 3.2768-7.7824 7.5776-7.7824m0-20.48c-15.5648 0-28.2624 12.6976-28.2624 28.2624v1.6384c-13.5168 6.9632-22.9376 21.2992-22.9376 37.4784v16.1792c0 10.6496 3.8912 20.2752 10.4448 27.648-6.3488 5.5296-10.4448 13.9264-10.4448 22.9376 0 14.336 9.8304 26.2144 22.9376 29.696 1.024 14.5408 13.312 26.2144 28.0576 26.2144 15.5648 0 28.2624-12.6976 28.2624-28.2624v-4.096c11.4688-7.5776 18.8416-20.6848 18.8416-35.0208v-16.1792c0-10.6496-3.8912-20.2752-10.4448-27.648 6.3488-5.5296 10.4448-13.9264 10.4448-22.9376 0-12.6976-7.7824-23.7568-18.8416-28.2624-0.2048-15.36-12.6976-27.648-28.0576-27.648z" fill="#1C1D21" p-id="7087"></path><path d="M518.9632 376.832h-13.7216c-0.8192 0-1.2288-0.6144-1.2288-1.2288v-16.1792c0-0.8192 0.6144-1.2288 1.2288-1.2288H530.432c5.5296 0 10.24-4.5056 10.24-10.24 0-5.5296-4.5056-10.24-10.24-10.24h-8.6016v-17.408c0-4.3008-3.4816-7.7824-7.7824-7.7824s-7.7824 3.4816-7.7824 7.7824v17.408h-1.2288c-11.8784 0-21.7088 9.8304-21.7088 21.7088v16.1792c0 11.8784 9.8304 21.7088 21.7088 21.7088h13.7216c0.8192 0 1.2288 0.6144 1.2288 1.2288v16.1792c0 0.8192-0.6144 1.2288-1.2288 1.2288H493.568c-5.5296 0-10.24 4.5056-10.24 10.24 0 5.5296 4.5056 10.24 10.24 10.24h12.6976v17.408c0 4.3008 3.4816 7.7824 7.7824 7.7824s7.7824-3.4816 7.7824-7.7824V436.224c10.6496-1.4336 18.8416-10.4448 18.8416-21.504v-16.1792c0-11.8784-9.8304-21.7088-21.7088-21.7088zM240.2304 296.96v55.5008c4.9152 0.8192 10.24 1.4336 15.36 1.4336 47.9232 0 86.8352-38.912 86.8352-86.8352 0-3.6864-0.2048-7.3728-0.8192-11.0592h-60.6208c-22.528 0-40.7552 18.432-40.7552 40.96zM743.0144 256h-60.6208c-0.4096 3.6864-0.8192 7.168-0.8192 11.0592 0 47.9232 38.912 86.8352 86.8352 86.8352 5.3248 0 10.4448-0.4096 15.36-1.4336V296.96c0.2048-22.528-18.2272-40.96-40.7552-40.96zM255.5904 420.2496c-5.3248 0-10.4448 0.4096-15.36 1.4336V477.184c0 22.528 18.432 40.96 40.96 40.96h60.6208c0.4096-3.6864 0.8192-7.168 0.8192-11.0592-0.2048-47.9232-39.1168-86.8352-87.04-86.8352zM768.4096 420.2496c-47.9232 0-86.8352 38.912-86.8352 86.8352 0 3.6864 0.2048 7.3728 0.8192 11.0592h60.6208c22.528 0 40.96-18.432 40.96-40.96v-55.5008c-5.12-0.8192-10.24-1.4336-15.5648-1.4336z" fill="#8CEEF9" p-id="7088"></path><path d="M255.5904 364.1344c-5.7344 0-11.4688-0.6144-17.2032-1.6384-4.9152-0.8192-8.3968-5.12-8.3968-10.0352V296.96c0-28.2624 22.9376-51.2 51.2-51.2h60.6208c5.12 0 9.4208 3.8912 10.24 9.0112 0.6144 4.096 0.8192 8.3968 0.8192 12.288-0.2048 53.4528-43.8272 97.0752-97.28 97.0752z m-5.12-20.6848c1.6384 0.2048 3.4816 0.2048 5.12 0.2048 42.1888 0 76.5952-34.4064 76.5952-76.5952v-0.8192h-50.9952c-16.9984 0-30.72 13.7216-30.72 30.72v46.4896zM768.4096 364.1344c-53.4528 0-97.0752-43.6224-97.0752-97.0752 0-3.8912 0.2048-8.192 0.8192-12.288 0.6144-5.12 4.9152-9.0112 10.24-9.0112h60.6208c28.2624 0 51.2 22.9376 51.2 51.2v55.5008c0 4.9152-3.4816 9.216-8.3968 10.0352-5.9392 1.024-11.6736 1.6384-17.408 1.6384z m15.5648-11.6736z m-92.16-86.2208v0.8192c0 42.1888 34.4064 76.5952 76.5952 76.5952 1.6384 0 3.4816 0 5.12-0.2048V296.96c0-16.9984-13.7216-30.72-30.72-30.72h-50.9952zM341.8112 528.384h-60.6208c-28.2624 0-51.2-22.9376-51.2-51.2v-55.5008c0-4.9152 3.4816-9.216 8.3968-10.0352 5.7344-1.024 11.4688-1.6384 17.2032-1.6384 53.4528 0 97.0752 43.6224 97.0752 97.0752 0 3.8912-0.2048 8.192-0.8192 12.288-0.6144 5.12-4.9152 9.0112-10.0352 9.0112z m-91.3408-97.6896V477.184c0 16.9984 13.7216 30.72 30.72 30.72h50.9952v-0.8192c0-42.1888-34.4064-76.5952-76.5952-76.5952-1.8432 0-3.4816 0.2048-5.12 0.2048zM743.0144 528.384h-60.6208c-5.12 0-9.4208-3.8912-10.24-9.0112-0.6144-4.096-0.8192-8.3968-0.8192-12.288 0-53.4528 43.6224-97.0752 97.0752-97.0752 5.7344 0 11.4688 0.6144 17.2032 1.6384 4.9152 0.8192 8.3968 5.12 8.3968 10.0352V477.184c0.2048 28.2624-22.9376 51.2-50.9952 51.2z m-51.2-20.48h50.9952c16.9984 0 30.72-13.7216 30.72-30.72v-46.4896c-1.6384-0.2048-3.4816-0.2048-5.12-0.2048-42.1888 0-76.5952 34.4064-76.5952 76.5952v0.8192zM416.768 397.312H389.12c-5.7344 0-10.24-4.5056-10.24-10.24s4.5056-10.24 10.24-10.24h27.648c5.7344 0 10.24 4.5056 10.24 10.24s-4.7104 10.24-10.24 10.24zM352.256 397.312h-5.7344c-5.7344 0-10.24-4.5056-10.24-10.24s4.5056-10.24 10.24-10.24h5.7344c5.7344 0 10.24 4.5056 10.24 10.24s-4.7104 10.24-10.24 10.24zM634.88 397.312h-27.648c-5.7344 0-10.24-4.5056-10.24-10.24s4.5056-10.24 10.24-10.24H634.88c5.7344 0 10.24 4.5056 10.24 10.24s-4.5056 10.24-10.24 10.24zM677.4784 397.312H671.744c-5.7344 0-10.24-4.5056-10.24-10.24s4.5056-10.24 10.24-10.24h5.7344c5.7344 0 10.24 4.5056 10.24 10.24s-4.5056 10.24-10.24 10.24zM555.8272 266.24H540.672c-5.7344 0-10.24-4.5056-10.24-10.24s4.5056-10.24 10.24-10.24h15.1552c5.7344 0 10.24 4.5056 10.24 10.24s-4.7104 10.24-10.24 10.24zM502.784 266.24h-76.5952c-5.7344 0-10.24-4.5056-10.24-10.24s4.5056-10.24 10.24-10.24h76.5952c5.7344 0 10.24 4.5056 10.24 10.24s-4.5056 10.24-10.24 10.24z" fill="#1C1D21" p-id="7089"></path><path d="M743.0144 528.384H281.1904c-28.2624 0-51.2-22.9376-51.2-51.2v-180.224c0-28.2624 22.9376-51.2 51.2-51.2H382.976c5.7344 0 10.24 4.5056 10.24 10.24s-4.5056 10.24-10.24 10.24h-101.9904c-16.9984 0-30.72 13.7216-30.72 30.72v180.224c0 16.9984 13.7216 30.72 30.72 30.72h461.824c16.9984 0 30.72-13.7216 30.72-30.72v-180.224c0-16.9984-13.7216-30.72-30.72-30.72h-144.9984c-5.7344 0-10.24-4.5056-10.24-10.24s4.5056-10.24 10.24-10.24h144.9984c28.2624 0 51.2 22.9376 51.2 51.2v180.224c0.2048 28.2624-22.9376 51.2-50.9952 51.2z" fill="#1C1D21" p-id="7090"></path><path d="M219.7504 310.8864H52.224c-11.4688 26.2144-20.6848 53.4528-27.648 81.7152h91.7504v20.6848c0 30.72 27.4432 54.0672 57.7536 49.3568l68.1984-10.8544c24.1664-3.8912 42.1888-24.7808 42.1888-49.3568v-27.0336c-0.2048-35.6352-29.0816-64.512-64.7168-64.512z" fill="#FFC5B3" p-id="7091"></path><path d="M166.0928 473.4976c-14.1312 0-28.0576-5.12-39.1168-14.336-13.312-11.4688-21.0944-28.0576-21.0944-45.6704v-10.4448H24.576c-3.072 0-6.144-1.4336-7.9872-3.8912-1.8432-2.4576-2.6624-5.7344-1.8432-8.8064 6.9632-28.4672 16.384-56.5248 28.2624-83.3536 1.6384-3.6864 5.3248-6.144 9.4208-6.144h167.5264c41.1648 0 74.752 33.5872 74.752 74.752v27.0336c0 29.696-21.2992 54.6816-50.7904 59.392l-68.1984 10.8544c-3.2768 0.4096-6.3488 0.6144-9.6256 0.6144z m-128.2048-91.136h78.4384c5.7344 0 10.24 4.5056 10.24 10.24v20.6848c0 11.6736 5.12 22.528 13.9264 30.1056 8.8064 7.5776 20.48 10.8544 31.9488 9.0112l68.1984-10.8544c19.456-3.072 33.3824-19.456 33.3824-39.1168v-27.0336c0-29.9008-24.3712-54.272-54.272-54.272H58.9824c-8.3968 19.8656-15.5648 40.3456-21.0944 61.2352z" fill="#1C1D21" p-id="7092"></path><path d="M243.3024 385.6384c-5.7344 0-10.24-4.5056-10.24-10.24 0-7.3728-5.9392-13.312-13.312-13.312H157.2864c-5.7344 0-10.24-4.5056-10.24-10.24s4.5056-10.24 10.24-10.24h62.464c18.6368 0 33.792 15.1552 33.792 33.792 0 5.7344-4.5056 10.24-10.24 10.24z" fill="#FFECE9" p-id="7093"></path><path d="M235.9296 463.0528c-5.7344 0-10.24-4.5056-10.24-10.24v-39.3216c0-5.7344 4.5056-10.24 10.24-10.24s10.24 4.5056 10.24 10.24v39.3216c0 5.7344-4.5056 10.24-10.24 10.24zM190.0544 470.2208c-5.7344 0-10.24-4.5056-10.24-10.24v-38.2976c0-5.7344 4.5056-10.24 10.24-10.24s10.24 4.5056 10.24 10.24v38.2976c0 5.7344-4.5056 10.24-10.24 10.24z" fill="#1C1D21" p-id="7094"></path><path d="M124.5184 362.0864H116.736c-5.7344 0-10.24-4.5056-10.24-10.24s4.5056-10.24 10.24-10.24h7.7824c5.7344 0 10.24 4.5056 10.24 10.24s-4.5056 10.24-10.24 10.24z" fill="#FFECE9" p-id="7095"></path><path d="M792.3712 730.5216H618.496c-11.264 0-20.48 9.216-20.48 20.48v242.8928c0 4.5056 1.4336 8.6016 3.8912 11.8784 78.0288-14.1312 149.9136-46.2848 210.944-92.16v-162.6112c0-11.4688-9.216-20.48-20.48-20.48z" fill="#FFFFFF" p-id="7096"></path><path d="M601.9072 1016.0128c-3.2768 0-6.3488-1.6384-8.3968-4.3008-3.8912-5.3248-5.7344-11.4688-5.7344-18.0224V751.0016c0-16.9984 13.7216-30.72 30.72-30.72h173.8752c16.9984 0 30.72 13.7216 30.72 30.72v162.6112c0 3.2768-1.4336 6.3488-4.096 8.192-63.2832 47.5136-137.6256 79.872-215.2448 94.0032-0.6144 0-1.2288 0.2048-1.8432 0.2048z m16.5888-275.2512c-5.7344 0-10.24 4.5056-10.24 10.24v243.3024c69.8368-13.9264 136.8064-43.4176 194.3552-85.6064v-157.4912c0-5.7344-4.5056-10.24-10.24-10.24H618.496z m194.3552 172.8512z" fill="#1C1D21" p-id="7097"></path><path d="M821.4528 809.1648h-31.744c-8.3968 0-15.36-6.7584-15.36-15.36v-48.128c0-8.3968 6.7584-15.36 15.36-15.36h31.744c17.6128 0 31.744 14.1312 31.744 31.744v15.36c0 17.6128-14.1312 31.744-31.744 31.744z" fill="#FFC5B3" p-id="7098"></path><path d="M821.4528 819.4048h-31.744c-14.1312 0-25.6-11.4688-25.6-25.6v-48.128c0-14.1312 11.4688-25.6 25.6-25.6h31.744c23.1424 0 41.984 18.8416 41.984 41.984v15.36c0 23.1424-18.8416 41.984-41.984 41.984z m-31.744-78.6432c-2.8672 0-5.12 2.2528-5.12 5.12v48.128c0 2.8672 2.2528 5.12 5.12 5.12h31.744c11.8784 0 21.504-9.6256 21.504-21.504v-15.36c0-11.8784-9.6256-21.504-21.504-21.504h-31.744z" fill="#1C1D21" p-id="7099"></path><path d="M853.1968 777.4208c0 17.6128-14.1312 31.744-31.744 31.744h-8.6016v104.448c14.1312-10.6496 27.4432-21.9136 40.3456-33.792v-102.4z" fill="#AAADAD" p-id="7100"></path><path d="M812.8512 923.8528c-1.6384 0-3.072-0.4096-4.5056-1.024-3.4816-1.6384-5.7344-5.3248-5.7344-9.216v-104.448c0-5.7344 4.5056-10.24 10.24-10.24h8.6016c11.8784 0 21.504-9.6256 21.504-21.504 0-5.7344 4.5056-10.24 10.24-10.24s10.24 4.5056 10.24 10.24v102.4c0 2.8672-1.2288 5.5296-3.2768 7.5776-13.312 12.288-27.0336 23.7568-41.1648 34.4064-1.8432 1.4336-4.096 2.048-6.144 2.048z m10.24-104.448v73.1136c6.7584-5.5296 13.312-11.264 19.8656-17.2032v-61.8496c-5.9392 3.4816-12.6976 5.7344-19.8656 5.9392zM731.9552 787.6608h-82.3296c-5.7344 0-10.24-4.5056-10.24-10.24s4.5056-10.24 10.24-10.24h82.3296c5.7344 0 10.24 4.5056 10.24 10.24s-4.5056 10.24-10.24 10.24zM732.7744 834.1504h-82.944c-5.7344 0-10.24-4.5056-10.24-10.24s4.5056-10.24 10.24-10.24h82.944c5.7344 0 10.24 4.5056 10.24 10.24s-4.7104 10.24-10.24 10.24zM732.7744 880.64h-82.944c-5.7344 0-10.24-4.5056-10.24-10.24s4.5056-10.24 10.24-10.24h82.944c5.7344 0 10.24 4.5056 10.24 10.24s-4.7104 10.24-10.24 10.24zM732.7744 927.1296h-82.944c-5.7344 0-10.24-4.5056-10.24-10.24s4.5056-10.24 10.24-10.24h82.944c5.7344 0 10.24 4.5056 10.24 10.24s-4.7104 10.24-10.24 10.24z" fill="#1C1D21" p-id="7101"></path></svg>