<svg width="580" height="400" xmlns="http://www.w3.org/2000/svg">
 <!-- Created with Method Draw - http://github.com/duopixel/Method-Draw/ -->
 <g>
  <title>background</title>
  <rect fill="#fff" id="canvas_background" height="402" width="582" y="-1" x="-1"/>
  <g display="none" overflow="visible" y="0" x="0" height="100%" width="100%" id="canvasGrid">
   <rect fill="url(#gridpattern)" stroke-width="0" y="0" x="0" height="100%" width="100%"/>
  </g>
 </g>
 <g>
  <title>Layer 1</title>
  <path stroke="#000" id="svg_1" d="m248.585973,330.525825c-88.68285,-70.853324 -120.390502,-115.673866 -120.647472,-170.542317c-0.234339,-50.019317 38.907113,-98.295322 79.470339,-98.016923c20.255463,0.139297 63.704726,18.549148 79.090257,33.511736c7.752137,7.539016 11.423924,6.795594 28.683229,-5.807472c46.972546,-34.300155 92.841713,-35.020103 122.5486,-1.923329c47.477919,52.895601 38.834042,116.062608 -24.848213,181.583854c-33.857149,34.8349 -107.793733,96.633965 -115.613112,96.633965c-2.37933,0 -24.286948,-15.947818 -48.683627,-35.439527l0,0.000012z" stroke-width="1.5" fill="#ff0f33"/>
 </g>
</svg>